<svg version="1.1" xmlns="http://www.w3.org/2000/svg" width="21" height="24" viewBox="0 0 21 24" style="enable-background:new 0 0 21 24"><path d="M19.425,3.146H17.85V0.87C17.85,0.293,17.377,0,16.8,0h-0.526c-0.577,0-1.05,0.292-1.05,0.87v2.276H5.776V0.87
	C5.776,0.293,5.303,0,4.726,0H4.2C3.623,0,3.15,0.293,3.15,0.87v2.276H1.575C0.708,3.146,0,3.855,0,4.722v14.703
	C0,20.291,0.708,21,1.575,21h17.85C20.291,21,21,20.291,21,19.425V4.722C21,3.855,20.291,3.146,19.425,3.146z"/><g style="fill:#fff"><path d="M17,1.385C17,1.173,16.808,1,16.571,1h-0.143C16.193,1,16,1.173,16,1.385v2.23C16,3.827,16.193,4,16.429,4
	h0.143C16.808,4,17,3.827,17,3.615V1.385z"/><path d="M5,1.385C5,1.173,4.808,1,4.572,1H4.428C4.193,1,4,1.173,4,1.385v2.231C4,3.827,4.193,4,4.428,4h0.144
	C4.808,4,5,3.827,5,3.616V1.385z"/><path d="M 1,5 H5 V8 H1 z"/><path d="M 6,5 H10 V8 H6 z"/><path d="M 11,5 H15 V8 H11 z"/><path d="M 16,5 H20 V8 H16 z"/><path d="M 1,9 H5 V12 H1 z"/><path d="M 6,9 H10 V12 H6 z"/><path d="M 11,9 H15 V12 H11 z"/><path d="M 16,9 H20 V12 H16 z"/><path d="M 1,13 H5 V16 H1 z"/><path d="M 6,13 H10 V16 H6 z"/><path d="M 11,13 H15 V16 H11 z"/><path d="M 16,13 H20 V16 H16 z"/><path d="M 1,17 H5 V20 H1 z"/><path d="M 6,17 H10 V20 H6 z"/><path d="M 11,17 H15 V20 H11 z"/><path d="M 16,17 H20 V20 H16 z"/></g></svg>